<svg width="24" height="26" viewBox="0 0 24 26" fill="none" xmlns="http://www.w3.org/2000/svg">
<circle cx="11.5" cy="11.5" r="11.5" fill="white"/>
<path d="M3.36815 2.59618C3.18573 2.23134 2.38004 1.53206 2 1.22803L4.73631 2.59618L4.28026 1C4.28026 1 6.49712 2.03605 7.47261 2.8242C8.38472 3.50828 8.84077 3.96433 9.29682 4.64841C9.75287 5.33249 12.6716 7.93198 13.4013 8.29682C14.7694 8.9809 15.6008 7.99989 16.9313 8.29682C17.7488 8.47924 18.2629 9.13291 18.4178 9.43695C18.6459 9.51295 19.7229 9.71994 20.242 9.893C20.9261 10.121 21.8382 10.349 23.2064 11.4892C23.2064 11.4892 21.6102 10.8051 20.4701 10.5771C19.3299 10.349 18.6459 10.349 18.6459 10.349C17.2777 10.121 17.5784 10.3309 16.5936 10.5771C15.7088 10.7983 15.3232 11.0331 13.8573 13.0854C12.7172 14.6815 12.7172 14.4535 10.893 15.8217C8.38472 18.786 8.65509 19.1362 8.15669 20.3822C7.79185 21.2943 6.71253 25.1707 6.56051 25.8548C6.56051 25.6268 7.06217 23.4833 7.24459 22.2064C7.42701 20.9294 8.08068 19.09 8.61274 17.6459L7.01656 20.8382L8.38472 16.7338L10.665 11.7172C9.67686 10.8811 7.92867 9.43695 6.78854 8.29682C5.87644 7.38472 3.59618 3.05223 3.36815 2.59618Z" fill="#70778D"/>
<path d="M3.36815 2.59618C3.18573 2.23134 2.38004 1.53206 2 1.22803L5.19236 2.59618L7.47261 4.42039L9.06879 6.24459L9.9809 7.15669C12.2612 8.29682 12.7172 8.75287 13.8573 8.75287C15.6815 8.52485 15.9096 8.06879 16.9313 8.29682C17.7488 8.47924 18.2629 9.13291 18.4178 9.43695C18.6459 9.51296 19.7229 9.71994 20.242 9.893C20.9261 10.121 21.8382 10.349 23.2064 11.4892C23.2064 11.4892 21.6102 10.8051 20.4701 10.5771C19.3299 10.349 18.6459 10.349 18.6459 10.349C17.2777 10.121 17.5784 10.3309 16.5936 10.5771C15.7088 10.7983 15.3232 11.0331 13.8573 13.0854C12.7172 14.6815 12.7172 14.4535 10.893 15.8217C8.38472 18.786 8.65509 19.1362 8.15669 20.3822C7.79185 21.2943 6.71253 25.1707 6.56051 25.8548C6.56051 25.6268 7.06217 23.4833 7.24459 22.2064C7.42701 20.9294 8.08068 19.09 8.61274 17.6459L7.01656 20.8382L8.38472 16.7338L10.665 11.7172C9.67686 10.8811 7.92867 9.43695 6.78854 8.29682C5.87644 7.38472 3.59618 3.05223 3.36815 2.59618Z" fill="url(#paint0_linear_5_148)"/>
<defs>
<linearGradient id="paint0_linear_5_148" x1="3.36815" y1="14.6815" x2="3.36815" y2="1.9121" gradientUnits="userSpaceOnUse">
<stop offset="0.00953429" stop-color="#5B6173"/>
<stop offset="1" stop-color="#848CA5"/>
</linearGradient>
</defs>
</svg>
