<svg version="1.1" id="Layer_1" xmlns="http://www.w3.org/2000/svg" xmlns:xlink="http://www.w3.org/1999/xlink" x="0px" y="0px" width="77px" height="77px" viewBox="0 0 77 77" enable-background="new 0 0 77 77" xml:space="preserve">
            <circle fill="#FFFFFF" cx="38.5" cy="38.5" r="38.5"></circle>
            <g id="logo-white" transform="translate(3340)">
                <path id="Path_1767" d="M51.8,29.1c-0.3,0-0.5,0.3-0.9,0.5c-0.4,0.4-0.5,0.9-0.5,2v4.8c-1.7-0.7-3.2-1.2-4.5-1.6
                    c-1.3-0.5-2.5-0.9-3.6-1.3c-0.9-0.3-1.7-0.7-2.5-1.2c0-0.7-0.1-1.4-0.3-2c-0.1-0.4-0.7-0.7-1.5-0.7c-1.1,0-1.6,0.7-1.6,1.9
                    c0,0.9,2.1,2.3,6.4,3.9c4.3,1.6,9,3.1,14,4.5s8.7,2.4,10.6,2.8c2.8,1,5.5,2.5,7.8,4.4c2,1.8,3.6,4,4.7,6.4c1,2.6,1.5,5.3,1.5,8
                    c0.1,2.9-0.7,5.7-2.3,8.2c-1.4,2.2-3.5,4-6,4.9c-2.5,1.1-5.3,1.6-8,1.6c-0.7,0-2.3-0.1-4.8-0.4c-2.6-0.3-5.2-0.4-7.8-0.4
                    c-1.5,0-3.5,0.1-6.4,0.3c-2.8,0.1-5.1,0.3-6.7,0.3c-1.8-0.1-3.6-0.3-5.3-0.7c-2.1-0.4-3.3-1.1-3.3-1.7c0-0.5,0.3-0.9,0.9-1.5
                    c0.8-0.6,1.7-1.1,2.7-1.5c1.2-0.5,3.1-1.3,5.6-2.4V39l10.7,4.3v18.4c-0.3,2,1.1,3.8,3,4.1c0.4,0.1,0.7,0.1,1.1,0
                    c0.5,0,1.1,0,1.6-0.1c0.7,0,1.2-0.1,1.6-0.1c0.5,0,1,0,1.5,0.1c0.7,0,1.1,0.1,1.5,0.1c5.2,0,7.9-2.9,7.9-9c0.1-2.9-0.9-5.7-2.9-7.8
                    c-2-2.1-4.5-3.6-7.2-4.7l-17-6.4c-3.7-1.5-6.5-2.7-8.7-3.6c-1.5-0.7-3-1.7-4.3-2.8c-0.8-0.7-1.2-1.7-1.2-2.8c0-2.7,3.1-4,9.4-4
                    h30.5c1.8-0.1,3.7,0.1,5.5,0.5c1.2,0.3,1.9,1.5,1.9,2.7c0,0.5-0.1,0.9-0.3,1.3c-0.3,0.3-0.5,0.7-1.1,1.2s-0.7,0.8-0.7,1.2
                    c0,0.4,0.2,0.8,0.4,1.1l0.4,0.4c-0.7,0.4-1.4,0.5-2.1,0.5c-1,0.1-2.1-0.2-2.9-0.8c-1-0.8-1.9-1.7-2.7-2.7c-0.9-0.9-3.3-1.5-7.4-1.5
                    h-6.4L51.8,29.1z"></path>
                <path id="Path_1768" d="M55.4,14.7c-1.3,0-2.8,0.1-4.1,0.3h-0.1v0.9h0.3c1.3-0.1,2.7-0.3,4-0.3c19.8,0,35.9,16.1,35.9,35.9
                    c0,19.8-16.1,35.9-35.9,35.9c0,0,0,0,0,0c-8.4,0-16.5-2.9-23-8.2C26,73.9,21.6,66.6,19.9,58.5v-0.3h-0.7v0.4
                    c1.7,8.3,6.1,15.7,12.6,21.1c15.7,12.9,38.8,10.7,51.7-5c12.9-15.7,10.7-38.8-5-51.7C72.1,17.7,63.9,14.7,55.4,14.7z"></path>
                <path id="Path_1769" d="M18.6,47.8c-2,0-3.6,1.6-3.6,3.6c0,2,1.6,3.6,3.6,3.6s3.6-1.6,3.6-3.6C22.2,49.4,20.6,47.8,18.6,47.8
                    C18.6,47.8,18.6,47.8,18.6,47.8z M21.6,51.4c0,1.6-1.3,2.9-2.9,2.9c-1.6,0-3-1.2-3-2.9c0-1.6,1.2-3,2.9-3c0.1,0,0.1,0,0.2,0
                    C20.2,48.5,21.5,49.8,21.6,51.4L21.6,51.4z"></path>
                <path id="Path_1770" d="M51.9,29.1c-0.3,0-0.5,0.3-0.9,0.5c-0.4,0.4-0.5,0.9-0.5,2v4.8c-1.7-0.7-3.2-1.2-4.5-1.6
                    c-1.3-0.5-2.5-0.9-3.6-1.3c-0.9-0.3-1.7-0.7-2.5-1.2c0-0.7-0.1-1.4-0.3-2c-0.1-0.4-0.7-0.7-1.5-0.7c-1.1,0-1.6,0.7-1.6,1.9
                    c0,0.9,2.1,2.3,6.4,3.9c4.3,1.6,9,3.1,14,4.5c5.1,1.5,8.7,2.4,10.6,2.8c2.8,1,5.5,2.5,7.8,4.4c2,1.8,3.6,4,4.7,6.4
                    c1,2.6,1.5,5.3,1.5,8c0.1,2.9-0.7,5.7-2.3,8.2c-1.4,2.2-3.5,4-6,4.9c-2.5,1.1-5.3,1.6-8,1.6c-0.7,0-2.3-0.1-4.8-0.4
                    c-2.6-0.3-5.2-0.4-7.8-0.4c-1.5,0-3.5,0.1-6.4,0.3c-2.8,0.1-5.1,0.3-6.7,0.3c-1.8-0.1-3.6-0.3-5.3-0.7c-2.1-0.4-3.3-1.1-3.3-1.7
                    c0-0.5,0.3-0.9,0.9-1.5c0.8-0.6,1.7-1.1,2.7-1.5c1.2-0.5,3.1-1.3,5.6-2.4V39l10.7,4.3v18.4c-0.3,2,1.1,3.8,3,4.1
                    c0.4,0.1,0.7,0.1,1.1,0c0.5,0,1.1,0,1.6-0.1c0.7,0,1.2-0.1,1.6-0.1c0.5,0,1,0,1.5,0.1c0.7,0,1.1,0.1,1.5,0.1c5.2,0,7.9-2.9,7.9-9
                    c0.1-2.9-0.9-5.7-2.9-7.8c-2-2.1-4.5-3.6-7.2-4.7l-17-6.4c-3.7-1.5-6.5-2.7-8.7-3.6c-1.5-0.7-3-1.7-4.3-2.8c-1-0.5-1.6-1.5-1.6-2.7
                    c0-2.7,3.1-4,9.4-4h30.9c1.8-0.1,3.7,0.1,5.5,0.5c1.2,0.3,1.9,1.5,1.9,2.7c0,0.5-0.1,0.9-0.3,1.3c-0.3,0.3-0.5,0.7-1.1,1.2
                    c-0.7,0.7-0.8,1.1-0.8,1.3c0,0.4,0.2,0.8,0.4,1.1l0.4,0.4c-0.7,0.4-1.4,0.5-2.1,0.5c-1,0.1-2.1-0.2-2.9-0.8c-1-0.8-1.9-1.7-2.7-2.7
                    c-0.9-0.9-3.3-1.5-7.4-1.5L51.9,29.1z"></path>
                <path id="Path_1771" d="M51.5,28.8c-0.3,0-0.5,0.3-0.9,0.5c-0.4,0.4-0.5,0.9-0.5,2v4.8c-1.7-0.7-3.2-1.2-4.5-1.6
                    c-1.3-0.5-2.5-0.9-3.6-1.3c-0.9-0.3-1.7-0.7-2.5-1.2c0-0.7-0.1-1.4-0.3-2c-0.1-0.4-0.7-0.7-1.5-0.7c-1.1,0-1.6,0.7-1.6,1.9
                    c0,0.9,2.1,2.3,6.4,3.9s9,3.1,14,4.5c5.1,1.5,8.7,2.4,10.6,2.8c2.8,1,5.5,2.5,7.8,4.4c2,1.8,3.6,4,4.7,6.4c1,2.6,1.5,5.3,1.5,8
                    c0.1,2.9-0.7,5.7-2.3,8.2c-1.4,2.2-3.5,4-6,4.9c-2.5,1.1-5.3,1.6-8,1.6c-0.7,0-2.3-0.1-4.8-0.4c-2.6-0.3-5.2-0.4-7.8-0.4
                    c-1.5,0-3.5,0.1-6.4,0.3c-2.8,0.1-5.1,0.3-6.7,0.3c-1.8-0.1-3.6-0.3-5.3-0.7c-2.1-0.4-3.3-1.1-3.3-1.7c0-0.5,0.3-0.9,0.9-1.5
                    c0.8-0.6,1.7-1.1,2.7-1.5c1.2-0.5,3.1-1.3,5.6-2.4V38.7L50.2,43v18.4c-0.3,2,1.1,3.8,3,4.1c0.4,0.1,0.7,0.1,1.1,0
                    c0.5,0,1.1,0,1.6-0.1c0.5-0.1,1.1-0.1,1.6-0.1c0.5,0,1,0,1.5,0.1c0.7,0,1.1,0.1,1.5,0.1c5.2,0,7.9-2.9,7.9-9
                    c0.1-2.9-0.9-5.7-2.9-7.8c-2-2.1-4.5-3.6-7.2-4.7l-17-6.4c-3.7-1.5-6.5-2.7-8.7-3.6c-1.5-0.7-3-1.7-4.3-2.8
                    c-0.8-0.7-1.2-1.7-1.2-2.8c0-2.7,3.1-4,9.4-4h30.9c1.8-0.1,3.7,0.1,5.5,0.5c1.2,0.3,1.9,1.5,1.9,2.7c0,0.5-0.1,0.9-0.3,1.3
                    c-0.3,0.3-0.5,0.7-1.1,1.2s-0.7,0.8-0.7,1.2c0,0.4,0.2,0.8,0.4,1.1l0.4,0.4c-0.7,0.4-1.4,0.5-2.1,0.5c-1,0.1-2.1-0.2-2.9-0.8
                    c-1-0.8-1.9-1.7-2.7-2.7c-0.9-0.9-3.3-1.5-7.4-1.5h-6.8L51.5,28.8z"></path>
            </g>
            <path fill="#777777" d="M36.4,17.4c-0.2,0-0.6,0.2-1,0.5c-0.4,0.3-0.6,1-0.6,1.9v4.8c-1.7-0.6-3.2-1.2-4.5-1.6
                c-1.3-0.5-2.5-0.9-3.5-1.3c-1-0.4-1.8-0.8-2.5-1.2c0-0.9-0.1-1.5-0.3-2c-0.2-0.4-0.7-0.7-1.5-0.7c-1.1,0-1.6,0.6-1.6,1.9
                c0,1,2.1,2.2,6.2,3.8C31.4,25.1,36,26.6,41,28c5,1.4,8.5,2.3,10.4,2.7c3,1,5.5,2.5,7.6,4.3c2,1.8,3.6,4,4.5,6.4c1,2.4,1.5,5,1.5,7.8
                c0,3.2-0.7,5.8-2.2,8c-1.5,2.2-3.4,3.8-5.9,4.8c-2.4,1-5,1.6-7.8,1.6c-0.7,0-2.3-0.1-4.8-0.4c-2.5-0.3-5-0.4-7.6-0.4
                c-1.4,0-3.5,0.1-6.3,0.2c-2.8,0.1-5,0.2-6.6,0.2c-1.4,0-3.1-0.2-5.3-0.7c-2.2-0.4-3.2-1-3.2-1.7c0-0.5,0.3-1,0.9-1.4
                c0.6-0.4,1.5-1,2.7-1.5c1.2-0.5,3.1-1.3,5.6-2.3V27.1l10.5,4.2v18.2c0,2.7,1.3,4.1,4,4.1c0.4,0,0.9,0,1.5-0.1c0.7,0,1.2-0.1,1.6-0.1
                c0.3,0,0.8,0,1.4,0.1c0.6,0,1.1,0.1,1.4,0.1c5.2,0,7.8-2.9,7.8-8.8c0-3.1-1-5.6-2.9-7.6c-1.9-2-4.3-3.5-7.1-4.5l-16.7-6.3
                c-3.7-1.4-6.5-2.6-8.5-3.6c-2-1-3.4-1.9-4.2-2.8c-0.8-0.9-1.2-1.8-1.2-2.8c0-2.6,3.1-3.9,9.2-3.9h30.3c2.4,0,4.1,0.2,5.3,0.6
                c1.2,0.4,1.8,1.3,1.8,2.7c0,0.6-0.1,1.1-0.3,1.3c-0.2,0.3-0.6,0.7-1,1.1c-0.5,0.5-0.7,0.9-0.7,1.2c0,0.4,0.1,0.7,0.4,1
                c0.2,0.3,0.4,0.4,0.4,0.4c-0.8,0.4-1.5,0.6-2,0.6c-1.2,0-2.2-0.3-2.9-0.8c-0.7-0.5-1.6-1.4-2.6-2.6c-0.9-1-3.3-1.5-7.2-1.5H36.4z"></path>
            </svg>