<?xml version="1.0" encoding="utf-8"?>
<!DOCTYPE svg PUBLIC "-//W3C//DTD SVG 1.1//EN" "http://www.w3.org/Graphics/SVG/1.1/DTD/svg11.dtd">
<svg version="1.1" id="Слой_1" xmlns="http://www.w3.org/2000/svg" xmlns:xlink="http://www.w3.org/1999/xlink" x="0px" y="0px"
	 width="47px" height="46px" viewBox="0 0 47 46" enable-background="new 0 0 47 46" xml:space="preserve">
<path fill="#FFFFFF" d="M26.07,0H43c2.209,0,4,1.791,4,4v16.228c0,3.227-1.3,6.319-3.605,8.577L29.323,42.576
	C27.08,44.771,24.066,46,20.929,46H4c-2.209,0-4-1.791-4-4V25.771c0-3.227,1.3-6.318,3.606-8.576L17.677,3.424
	C19.919,1.229,22.933,0,26.07,0z M22.648,16.972c-0.305,0.285-0.555,0.523-0.687,0.654c-0.897,0.919-2.104,2.553-2.104,4.392
	l0.034,12.36c0,2.076-0.31,4.12-1.104,4.97c-1.828,1.907-2.38-1.634-1.38-4.018c0,0-4.587,1.941-3.31,4.904
	c0.862,2.008,3.552,1.396,5.725-0.853c1.656-1.668,2.76-2.724,3.14-3.337c0.413-0.578,1-1.09,1-3.472V20.52
	c0-0.835,0.214-1.882,0.585-2.883l5.485,1.93c4.864,1.19,7.657,0.783,10.728-1.975c4.277-3.814,2.725-8.07-0.38-8.58
	c-0.724-0.103-2,0.238-2.552,0.885c-0.553,0.647-2.139,2.485-2.139,2.485c5.242-1.77,6.899,3.677,3.83,5.073
	c-2.588,1.158-13.453-3.54-16.283-4.596c-7.795-2.928-11.038,0.953-12.521,2.962c-3.277,4.494-2.07,9.602,1.207,9.908
	c2.725,0.272,4.14-2.009,6.037-5.855c-6.002,4.393-8.107,0.749-7.14-1.941c0.586-1.6,2.759-2.962,5.932-2.622
	c0,0,0.138,0,0.38,0.034c0.62,0.102,1.207,0.239,1.793,0.409C19.815,16.001,20.965,16.386,22.648,16.972z"/>
</svg>
